<mxfile host="app.diagrams.net" modified="2024-06-14T15:24:18.432Z" agent="Mozilla/5.0 (Windows NT 10.0; Win64; x64; rv:126.0) Gecko/20100101 Firefox/126.0" etag="4A2JXVU4-l5SWGWgoT8B" version="21.3.8" type="github">
  <diagram id="C5RBs43oDa-KdzZeNtuy" name="Page-1">
    <mxGraphModel dx="819" dy="426" grid="1" gridSize="10" guides="1" tooltips="1" connect="1" arrows="1" fold="1" page="1" pageScale="1" pageWidth="827" pageHeight="1169" math="0" shadow="0">
      <root>
        <mxCell id="WIyWlLk6GJQsqaUBKTNV-0" />
        <mxCell id="WIyWlLk6GJQsqaUBKTNV-1" parent="WIyWlLk6GJQsqaUBKTNV-0" />
        <mxCell id="5BrHjm5CwSMml3b7ZwpN-13" style="edgeStyle=orthogonalEdgeStyle;rounded=0;orthogonalLoop=1;jettySize=auto;html=1;" edge="1" parent="WIyWlLk6GJQsqaUBKTNV-1" source="5BrHjm5CwSMml3b7ZwpN-0" target="5BrHjm5CwSMml3b7ZwpN-2">
          <mxGeometry relative="1" as="geometry" />
        </mxCell>
        <mxCell id="5BrHjm5CwSMml3b7ZwpN-22" style="edgeStyle=orthogonalEdgeStyle;rounded=0;orthogonalLoop=1;jettySize=auto;html=1;" edge="1" parent="WIyWlLk6GJQsqaUBKTNV-1" source="5BrHjm5CwSMml3b7ZwpN-0" target="5BrHjm5CwSMml3b7ZwpN-19">
          <mxGeometry relative="1" as="geometry" />
        </mxCell>
        <mxCell id="5BrHjm5CwSMml3b7ZwpN-0" value="Item" style="rounded=0;whiteSpace=wrap;html=1;" vertex="1" parent="WIyWlLk6GJQsqaUBKTNV-1">
          <mxGeometry x="280" y="80" width="80" height="40" as="geometry" />
        </mxCell>
        <mxCell id="5BrHjm5CwSMml3b7ZwpN-14" style="edgeStyle=orthogonalEdgeStyle;rounded=0;orthogonalLoop=1;jettySize=auto;html=1;" edge="1" parent="WIyWlLk6GJQsqaUBKTNV-1" source="5BrHjm5CwSMml3b7ZwpN-1" target="5BrHjm5CwSMml3b7ZwpN-0">
          <mxGeometry relative="1" as="geometry" />
        </mxCell>
        <mxCell id="5BrHjm5CwSMml3b7ZwpN-1" value="ItemType" style="rounded=0;whiteSpace=wrap;html=1;" vertex="1" parent="WIyWlLk6GJQsqaUBKTNV-1">
          <mxGeometry x="160" y="80" width="80" height="40" as="geometry" />
        </mxCell>
        <mxCell id="5BrHjm5CwSMml3b7ZwpN-2" value="Inventory" style="rounded=0;whiteSpace=wrap;html=1;" vertex="1" parent="WIyWlLk6GJQsqaUBKTNV-1">
          <mxGeometry x="280" y="160" width="80" height="40" as="geometry" />
        </mxCell>
        <mxCell id="5BrHjm5CwSMml3b7ZwpN-11" value="every Character&lt;br&gt;has Stats" style="edgeStyle=orthogonalEdgeStyle;rounded=0;orthogonalLoop=1;jettySize=auto;html=1;entryX=0.5;entryY=1;entryDx=0;entryDy=0;endArrow=diamondThin;endFill=1;" edge="1" parent="WIyWlLk6GJQsqaUBKTNV-1" source="5BrHjm5CwSMml3b7ZwpN-9" target="5BrHjm5CwSMml3b7ZwpN-10">
          <mxGeometry relative="1" as="geometry" />
        </mxCell>
        <mxCell id="5BrHjm5CwSMml3b7ZwpN-9" value="Stats&lt;br&gt;" style="rounded=0;whiteSpace=wrap;html=1;" vertex="1" parent="WIyWlLk6GJQsqaUBKTNV-1">
          <mxGeometry x="400" y="320" width="80" height="40" as="geometry" />
        </mxCell>
        <mxCell id="5BrHjm5CwSMml3b7ZwpN-17" style="edgeStyle=orthogonalEdgeStyle;rounded=0;orthogonalLoop=1;jettySize=auto;html=1;" edge="1" parent="WIyWlLk6GJQsqaUBKTNV-1" source="5BrHjm5CwSMml3b7ZwpN-10" target="5BrHjm5CwSMml3b7ZwpN-15">
          <mxGeometry relative="1" as="geometry" />
        </mxCell>
        <mxCell id="5BrHjm5CwSMml3b7ZwpN-18" style="edgeStyle=orthogonalEdgeStyle;rounded=0;orthogonalLoop=1;jettySize=auto;html=1;" edge="1" parent="WIyWlLk6GJQsqaUBKTNV-1" source="5BrHjm5CwSMml3b7ZwpN-10" target="5BrHjm5CwSMml3b7ZwpN-16">
          <mxGeometry relative="1" as="geometry" />
        </mxCell>
        <mxCell id="5BrHjm5CwSMml3b7ZwpN-10" value="RPG&lt;br&gt;Character" style="rounded=0;whiteSpace=wrap;html=1;" vertex="1" parent="WIyWlLk6GJQsqaUBKTNV-1">
          <mxGeometry x="520" y="240" width="80" height="40" as="geometry" />
        </mxCell>
        <mxCell id="5BrHjm5CwSMml3b7ZwpN-15" value="playable&lt;br&gt;Character" style="rounded=0;whiteSpace=wrap;html=1;" vertex="1" parent="WIyWlLk6GJQsqaUBKTNV-1">
          <mxGeometry x="400" y="240" width="80" height="40" as="geometry" />
        </mxCell>
        <mxCell id="5BrHjm5CwSMml3b7ZwpN-16" value="non playable&lt;br&gt;Character" style="rounded=0;whiteSpace=wrap;html=1;" vertex="1" parent="WIyWlLk6GJQsqaUBKTNV-1">
          <mxGeometry x="520" y="160" width="80" height="40" as="geometry" />
        </mxCell>
        <mxCell id="5BrHjm5CwSMml3b7ZwpN-21" style="edgeStyle=orthogonalEdgeStyle;rounded=0;orthogonalLoop=1;jettySize=auto;html=1;" edge="1" parent="WIyWlLk6GJQsqaUBKTNV-1" source="5BrHjm5CwSMml3b7ZwpN-19" target="5BrHjm5CwSMml3b7ZwpN-15">
          <mxGeometry relative="1" as="geometry" />
        </mxCell>
        <mxCell id="5BrHjm5CwSMml3b7ZwpN-19" value="Equipment" style="rounded=0;whiteSpace=wrap;html=1;" vertex="1" parent="WIyWlLk6GJQsqaUBKTNV-1">
          <mxGeometry x="400" y="80" width="80" height="40" as="geometry" />
        </mxCell>
        <mxCell id="5BrHjm5CwSMml3b7ZwpN-25" style="edgeStyle=orthogonalEdgeStyle;rounded=0;orthogonalLoop=1;jettySize=auto;html=1;" edge="1" parent="WIyWlLk6GJQsqaUBKTNV-1" source="5BrHjm5CwSMml3b7ZwpN-24" target="5BrHjm5CwSMml3b7ZwpN-2">
          <mxGeometry relative="1" as="geometry" />
        </mxCell>
        <mxCell id="5BrHjm5CwSMml3b7ZwpN-26" style="edgeStyle=orthogonalEdgeStyle;rounded=0;orthogonalLoop=1;jettySize=auto;html=1;" edge="1" parent="WIyWlLk6GJQsqaUBKTNV-1" source="5BrHjm5CwSMml3b7ZwpN-24" target="5BrHjm5CwSMml3b7ZwpN-15">
          <mxGeometry relative="1" as="geometry" />
        </mxCell>
        <mxCell id="5BrHjm5CwSMml3b7ZwpN-24" value="Player" style="rounded=0;whiteSpace=wrap;html=1;" vertex="1" parent="WIyWlLk6GJQsqaUBKTNV-1">
          <mxGeometry x="280" y="240" width="80" height="40" as="geometry" />
        </mxCell>
      </root>
    </mxGraphModel>
  </diagram>
</mxfile>
